<svg width="24" height="24" viewBox="0 0 24 24" fill="none" xmlns="http://www.w3.org/2000/svg">
<g clip-path="url(#clip0_490_1199)">
<path d="M18.3114 11.1193C18.3014 9.39524 19.1296 8.094 20.806 7.13568C19.868 5.87202 18.4511 5.17678 16.5801 5.04055C14.8089 4.90901 12.8731 6.01295 12.1646 6.01295C11.4163 6.01295 9.69997 5.08752 8.35288 5.08752C5.5689 5.1298 2.61029 7.17796 2.61029 11.3447C2.61029 12.5755 2.84977 13.847 3.32874 15.1592C3.96736 16.8832 6.27238 21.1111 8.67718 21.0406C9.93446 21.0124 10.8225 20.1998 12.459 20.1998C14.0456 20.1998 14.8688 21.0406 16.2708 21.0406C18.6955 21.0078 20.781 17.1651 21.3897 15.4364C18.1367 13.9942 18.3114 11.2085 18.3114 11.1193ZM15.4875 3.40577C16.8495 1.88375 16.7248 0.497948 16.6849 0C15.4825 0.0657667 14.0905 0.77041 13.2972 1.63947C12.4241 2.5696 11.9102 3.72051 12.02 5.01706C13.3221 5.11101 14.5096 4.48153 15.4875 3.40577Z" fill="#242426"/>
</g>
<defs>
<clipPath id="clip0_490_1199">
<rect width="20" height="21.1111" fill="white" transform="translate(2)"/>
</clipPath>
</defs>
</svg>
