<svg xmlns="http://www.w3.org/2000/svg" viewBox="0 0 1024 1024" width="1024" height="1024" role="img" aria-label="Mutter app icon">
  <defs>
    <linearGradient id="mt-foil" x1="0" y1="0" x2="1" y2="1">
      <stop offset="0" stop-color="#F3D572"></stop>
      <stop offset="0.52" stop-color="#E2B43A"></stop>
      <stop offset="1" stop-color="#BE9430"></stop>
    </linearGradient>
    <linearGradient id="mt-bg" x1="0.5" y1="0" x2="0.5" y2="1">
      <stop offset="0" stop-color="#FFFDF2"></stop>
      <stop offset="1" stop-color="#F7EFD9"></stop>
    </linearGradient>
    <filter id="mt-soft" x="-20%" y="-20%" width="140%" height="140%">
      <feDropShadow dx="0" dy="14" stdDeviation="22" flood-color="#B08A2A" flood-opacity="0.32"></feDropShadow>
    </filter>
  </defs>
  <rect width="1024" height="1024" rx="230" fill="url(#mt-bg)"></rect>
  <rect x="6" y="6" width="1012" height="1012" rx="226" fill="none" stroke="#E2B43A" stroke-opacity="0.20" stroke-width="3"></rect>

  
  <g filter="url(#mt-soft)">
    <rect x="250" y="430" width="524" height="350" rx="54" fill="url(#mt-foil)"></rect>
    <path d="M268 470 L487 612 a46 40 0 0 0 50 0 L756 470" fill="none" stroke="#2C2407" stroke-opacity="0.55" stroke-width="20" stroke-linecap="round" stroke-linejoin="round"></path>
  </g>

  
  <g fill="none" stroke="#6E561A" stroke-width="22" stroke-linecap="round" stroke-linejoin="round">
    <path d="M560 360 V250 l150 -34 v100"></path>
  </g>
  <ellipse cx="540" cy="362" rx="34" ry="28" fill="#6E561A"></ellipse>
  <ellipse cx="690" cy="328" rx="34" ry="28" fill="#6E561A"></ellipse>
  <circle cx="772" cy="250" r="20" fill="#E2B43A"></circle>
  <circle cx="470" cy="300" r="14" fill="#E2B43A"></circle>
</svg>