<svg width="24" height="24" viewBox="0 0 24 24" fill="none" xmlns="http://www.w3.org/2000/svg">
<path d="M21.9998 12.4315C21.9998 11.5924 21.9317 10.9802 21.7844 10.3452H12.2034V14.1322H17.8272C17.7139 15.0733 17.1016 16.4906 15.741 17.443L15.7219 17.5698L18.7512 19.9165L18.9611 19.9375C20.8886 18.1573 21.9998 15.5382 21.9998 12.4315Z" fill="#4285F4"/>
<path d="M12.2042 22.4096C14.9595 22.4096 17.2725 21.5025 18.962 19.9378L15.7418 17.4432C14.8801 18.0442 13.7236 18.4637 12.2042 18.4637C9.5057 18.4637 7.21534 16.6836 6.39889 14.2231L6.27922 14.2333L3.12927 16.6711L3.08807 16.7856C4.76615 20.1191 8.21306 22.4096 12.2042 22.4096Z" fill="#34A853"/>
<path d="M6.39925 14.2226C6.18382 13.5877 6.05915 12.9073 6.05915 12.2044C6.05915 11.5013 6.18382 10.8211 6.38791 10.1861L6.38221 10.0509L3.19281 7.57397L3.08846 7.62361C2.39685 9.00691 2 10.5603 2 12.2044C2 13.8484 2.39685 15.4017 3.08846 16.785L6.39925 14.2226Z" fill="#FBBC05"/>
<path d="M12.2042 5.94573C14.1203 5.94573 15.4129 6.77343 16.1499 7.46511L19.0298 4.65318C17.2611 3.00912 14.9593 2 12.2042 2C8.21301 2 4.76614 4.29033 3.08807 7.62379L6.38753 10.1863C7.2153 7.72588 9.50564 5.94573 12.2042 5.94573Z" fill="#EB4335"/>
</svg>
